<?xml version="1.0" standalone="no"?><!DOCTYPE svg PUBLIC "-//W3C//DTD SVG 1.1//EN" "http://www.w3.org/Graphics/SVG/1.1/DTD/svg11.dtd"><svg t="1584668303192" class="icon" viewBox="0 0 1024 1024" version="1.1" xmlns="http://www.w3.org/2000/svg" p-id="9448" xmlns:xlink="http://www.w3.org/1999/xlink" width="300" height="300"><defs><style type="text/css"></style></defs><path d="M207.8 566.7l-91.4 0.1c-8.2 0-14.8 6.7-14.8 14.9l0.3 241.5c0 8.2 6.7 14.8 14.9 14.8l91.4-0.1c8.2 0 14.8-6.7 14.8-14.9l-0.4-241.5c0-8.1-6.6-14.8-14.8-14.8zM818.6 565.8l91.4-0.1c8.2 0 14.9 6.6 14.9 14.8l0.4 241.5c0 8.2-6.6 14.9-14.8 14.9l-91.4 0.1c-8.2 0-14.9-6.6-14.9-14.8l-0.3-241.5c-0.1-8.2 6.5-14.8 14.7-14.9z" fill="#5B79FB" p-id="9449"></path><path d="M237.1 368.9l275.8-0.4 275.8-0.4c21.2 0 41.7 5.1 59.9 14.4h0.1l-61.2-155.8c-3.5-8.8-8.6-16.9-15.4-23.5-17.9-17.6-43.7-28.8-71.8-30.7l-6.7-0.4c-50.4-3.4-115.3-5.3-181-5.2-65.6 0.1-130.6 2.2-180.9 5.7l-6.7 0.4c-28.1 2-53.8 13.2-71.7 30.9-6.7 6.6-11.9 14.7-15.3 23.5l-60.7 156h0.1c18.1-9.4 38.5-14.5 59.7-14.5z" fill="#A4BEFF" p-id="9450"></path><path d="M805.5 331.7c6.9 11.4-2.2 25.2-16.5 25.2h-0.3l-551.6 0.8h-0.4c-14.2 0.1-23.4-13.7-16.5-25.2l27.1-84.7c6.6-20.7 22-38.1 42.8-47 11-4.7 23.2-7.6 36-8.5l6.7-0.4c50.9-3.4 114.8-5.3 179.9-5.4 65.1-0.1 129 1.6 179.9 4.9l6.7 0.4c11.8 0.8 23.1 3.3 33.5 7.3 22 8.6 38.6 26.4 45.6 48l27.1 84.6z" fill="#F0F5FF" p-id="9451"></path><path d="M636.3 326.6l-246.8 0.4c-27.2 0-45.4-28-34.2-52.8l20.5-45.6c6-13.4 19.4-22.1 34.1-22.1l205.7-0.3c14.7 0 28.1 8.6 34.2 22l20.6 45.6c11.2 24.7-6.9 52.8-34.1 52.8z" fill="#FFFFFF" p-id="9452"></path><path d="M474.5 357.4v-7.8c0-25.2-20.5-45.5-45.6-45.5h-21.3c7.2-3.2 12.3-10.5 12.3-18.9v-9c0-11.4-9.3-20.6-20.7-20.6l-45.1 0.1c-11.4 0-20.6 9.3-20.6 20.7v9c0 8.4 5.1 15.7 12.3 18.9h-21.3c-25.2 0-45.5 20.5-45.5 45.6v7.8l195.5-0.3zM746.9 357v-7.8c0-25.2-20.5-45.5-45.6-45.5H680c7.2-3.2 12.3-10.5 12.3-18.9v-9c0-11.4-9.3-20.6-20.7-20.6l-45.1 0.1c-11.4 0-20.6 9.3-20.6 20.7v9c0 8.4 5.1 15.7 12.3 18.9h-21.3c-25.2 0-45.5 20.5-45.5 45.6v7.8l195.5-0.3z" fill="#FF7E71" p-id="9453"></path><path d="M512.9 368.5l275.8-0.4c41.3-0.1 80 19.2 104 51.6l10.4 20.5c7.1 14 14.6 27.8 23 41 19 30 14 45.1 14.1 86.8l0.2 107.5c0.1 35.7-28.9 64.8-64.6 64.8l-362.3 0.5-362.3 0.5c-35.7 0.1-64.8-28.9-64.8-64.6l-0.2-107.5c-0.1-41.6-5.1-56.7 13.8-86.8 8.3-13.3 15.8-27.1 22.9-41.1l10.3-20.5c23.9-32.5 62.6-51.8 103.8-51.9l275.9-0.4z" fill="#A4BEFF" p-id="9454"></path><path d="M804.8 622.4c-17.1 3-33.3 9.8-47.4 20-19.4 14-42.8 21.6-66.7 21.6l-177.3 0.3-177.4 0.2c-24 0-47.3-7.5-66.8-21.5-14.1-10.1-30.3-16.9-47.5-19.8L144.2 610c-18-3.1-34.9-10.5-49.4-21.3l0.1 88c0 31 25.3 56.1 56.2 56.1l724.6-1c30.9 0 56.1-25.3 56-56.2l-0.1-88c-14.4 10.9-31.3 18.4-49.3 21.5l-77.5 13.3z" fill="#83A4FF" p-id="9455"></path><path d="M100.8 518.3L98.3 553c-1.3 18.1 12.7 33.6 30.8 34.3l103.1 14.1c8 0.3 14.1-7.3 12-15.1l-10.8-41.2c-4.9-18.8-20.1-33.2-39.2-37.1l-63-12.8c-15-3.1-29.3 7.8-30.4 23.1z" fill="#5B79FB" p-id="9456"></path><path d="M218.1 555.1c0 14.7-11.9 26.7-26.6 26.7-14.7 0-26.7-11.9-26.7-26.6 0-14.7 11.9-26.7 26.6-26.7 14.7-0.1 26.7 11.9 26.7 26.6z" fill="#E5ECFF" p-id="9457"></path><path d="M925.5 517.1l2.6 34.7c1.4 18.1-12.6 33.7-30.7 34.3l-103.1 14.4c-8.1 0.3-14.1-7.3-12.1-15.1l10.6-41.2c4.9-18.8 20-33.3 39.1-37.2l63-13c15.1-3 29.4 7.8 30.6 23.1z" fill="#5B79FB" p-id="9458"></path><path d="M808.3 554.2c0 14.7 12 26.6 26.7 26.6s26.6-12 26.6-26.7-12-26.6-26.7-26.6c-14.7 0.1-26.6 12-26.6 26.7z" fill="#E5ECFF" p-id="9459"></path><path d="M773 697.6l-6.4-13.4c-9-18.8-22.6-29.7-37.1-29.7l-216.2 0.3-216.2 0.3c-14.4 0-28.1 11-37 29.8l-6.4 13.4c-4.6 9.8-0.4 24.2 7.1 24.1l505.1-0.7c7.6 0 11.8-14.3 7.1-24.1zM766.8 544.6l-121.8 12c-43.6 4.3-87.9 6.5-131.8 6.5-43.8 0.1-88.2-2-131.8-6.2l-121.9-11.6h-0.1c-3.5-0.3-6.2 2.7-5 5.7l9.7 23c12.3 29.1 41.9 49.5 76.3 52.5l120.1 10.7c35.1 3.1 70.4 3.1 105.4-0.2L686 626c34.4-3.2 63.9-23.6 76.1-52.7l9.7-23c1.3-3-1.4-6-5-5.7 0.1 0 0 0 0 0z" fill="#5B79FB" p-id="9460"></path><path d="M542.5 600.6c0 16.1-13.1 29.3-29.2 29.3s-29.3-13-29.3-29.2 13.1-29.3 29.2-29.3c16.2-0.1 29.3 13 29.3 29.2z" fill="#F0F5FF" p-id="9461"></path><path d="M177.3 383.4l10.7-18.8c-7.7 0.7-15.4-3.1-19-10.2l-6.4-12.3c-6.5-12.5-19.8-20.4-34.3-20.4h-25.4c-11.6 0-22.5 5.7-28.8 15.1l-2.7 4 101.5 44.9c1.4-0.7 2.9-1.5 4.4-2.3z" fill="#A4BEFF" p-id="9462"></path><path d="M71.4 340.9l-3.6 5.4c-7.3 10.9-2.8 25.5 9.5 30.7l66.7 31.2c8.5-8.8 18.3-16.4 28.9-22.4L71.4 340.9z" fill="#5B79FB" p-id="9463"></path><path d="M848.6 382.4l-10.8-18.8c7.7 0.7 15.4-3.2 19-10.2l6.4-12.3c6.5-12.5 19.7-20.4 34.2-20.5h25.4c11.6 0 22.5 5.7 28.9 15.1l2.7 4L853 384.8c-1.5-0.8-2.9-1.6-4.4-2.4z" fill="#A4BEFF" p-id="9464"></path><path d="M954.3 339.6l3.6 5.4c7.3 10.8 2.9 25.5-9.4 30.8L882 407.1c-8.6-8.8-18.3-16.3-29-22.3l101.3-45.2z" fill="#5B79FB" p-id="9465"></path></svg>