<?xml version="1.0" standalone="no"?><!DOCTYPE svg PUBLIC "-//W3C//DTD SVG 1.1//EN" "http://www.w3.org/Graphics/SVG/1.1/DTD/svg11.dtd"><svg t="1584668719445" class="icon" viewBox="0 0 1024 1024" version="1.1" xmlns="http://www.w3.org/2000/svg" p-id="22355" xmlns:xlink="http://www.w3.org/1999/xlink" width="300" height="300"><defs><style type="text/css"></style></defs><path d="M512 512m-512 0a512 512 0 1 0 1024 0 512 512 0 1 0-1024 0Z" fill="#A5D06E" p-id="22356"></path><path d="M913.36 379.304c-32.88-10.656-92.56-29.784-96.984-29.784-6.128 0-520.392-30.608-520.392-30.608l-179.872 58.664 126.816 120.92 8.168 269.376-23.288 19.064 237.112 234.816c15.504 1.416 31.192 2.248 47.08 2.248 282.768 0 512-229.232 512-512 0-7.952-0.24-15.848-0.6-23.712L913.36 379.304z" fill="#90B753" p-id="22357"></path><path d="M227.28 377.576h569.432v407.128H227.28z" fill="#E3E7E7" p-id="22358"></path><path d="M746.272 239.296H277.728L116.112 377.576H907.888z" fill="#DB222D" p-id="22359"></path><path d="M263.832 413.288h88.24v100.992h-88.24z" fill="#AF1F23" p-id="22360"></path><path d="M270.328 420.184h33.192v39.24h-33.192zM312.384 420.184h33.2v39.24h-33.2zM270.328 468.136h33.192v39.24h-33.192zM312.384 468.136h33.2v39.24h-33.2z" fill="#4ABDE5" p-id="22361"></path><path d="M399.856 413.288h88.248v100.992H399.856z" fill="#AF1F23" p-id="22362"></path><path d="M406.352 420.184h33.208v39.24h-33.208zM448.408 420.184h33.208v39.24h-33.208zM406.352 468.136h33.208v39.24h-33.208zM448.408 468.136h33.208v39.24h-33.208z" fill="#EECE7B" p-id="22363"></path><path d="M535.888 413.288h88.24v100.992h-88.24z" fill="#AF1F23" p-id="22364"></path><path d="M542.392 420.184h33.192v39.24h-33.192zM584.44 420.184h33.2v39.24h-33.2zM542.392 468.136h33.192v39.24h-33.192zM584.44 468.136h33.2v39.24h-33.2z" fill="#4ABDE5" p-id="22365"></path><path d="M671.92 413.288h88.232v100.992H671.92z" fill="#AF1F23" p-id="22366"></path><path d="M678.416 420.184h33.192v39.24h-33.192zM720.472 420.184h33.2v39.24h-33.2zM678.416 468.136h33.192v39.24h-33.192zM720.472 468.136h33.2v39.24h-33.2z" fill="#EECE7B" p-id="22367"></path><path d="M263.832 534.504h88.24v100.984h-88.24z" fill="#AF1F23" p-id="22368"></path><path d="M270.328 541.408h33.192v39.248h-33.192zM312.384 541.408h33.2v39.248h-33.2zM270.328 589.344h33.192v39.248h-33.192zM312.384 589.344h33.2v39.248h-33.2z" fill="#EECE7B" p-id="22369"></path><path d="M399.856 534.504h88.248v100.984H399.856z" fill="#AF1F23" p-id="22370"></path><path d="M406.352 541.408h33.208v39.248h-33.208zM448.408 541.408h33.208v39.248h-33.208zM406.352 589.344h33.208v39.248h-33.208zM448.408 589.344h33.208v39.248h-33.208z" fill="#4ABDE5" p-id="22371"></path><path d="M535.888 534.504h88.24v100.984h-88.24z" fill="#AF1F23" p-id="22372"></path><path d="M542.392 541.408h33.192v39.248h-33.192zM584.44 541.408h33.2v39.248h-33.2zM542.392 589.344h33.192v39.248h-33.192zM584.44 589.344h33.2v39.248h-33.2z" fill="#EECE7B" p-id="22373"></path><path d="M671.92 534.504h88.232v100.984H671.92z" fill="#AF1F23" p-id="22374"></path><path d="M678.416 541.408h33.192v39.248h-33.192zM720.472 541.408h33.2v39.248h-33.2zM678.416 589.344h33.192v39.248h-33.192zM720.472 589.344h33.2v39.248h-33.2z" fill="#4ABDE5" p-id="22375"></path><path d="M263.832 655.72h88.24v100.984h-88.24z" fill="#AF1F23" p-id="22376"></path><path d="M270.328 662.624h33.192v39.232h-33.192zM312.384 662.624h33.2v39.232h-33.2zM270.328 710.56h33.192v39.248h-33.192zM312.384 710.56h33.2v39.248h-33.2z" fill="#4ABDE5" p-id="22377"></path><path d="M399.856 655.72h88.248v100.984H399.856z" fill="#AF1F23" p-id="22378"></path><path d="M406.352 662.624h33.208v39.232h-33.208zM448.408 662.624h33.208v39.232h-33.208zM406.352 710.56h33.208v39.248h-33.208zM448.408 710.56h33.208v39.248h-33.208z" fill="#EECE7B" p-id="22379"></path><path d="M535.888 655.72h88.24v100.984h-88.24z" fill="#AF1F23" p-id="22380"></path><path d="M542.392 662.624h33.192v39.232h-33.192zM584.44 662.624h33.2v39.232h-33.2zM542.392 710.56h33.192v39.248h-33.192zM584.44 710.56h33.2v39.248h-33.2z" fill="#4ABDE5" p-id="22381"></path><path d="M671.92 655.72h88.232v100.984H671.92z" fill="#AF1F23" p-id="22382"></path><path d="M678.416 662.624h33.192v39.232h-33.192zM720.472 662.624h33.2v39.232h-33.2zM678.416 710.56h33.192v39.248h-33.192zM720.472 710.56h33.2v39.248h-33.2z" fill="#EECE7B" p-id="22383"></path></svg>