<?xml version="1.0" standalone="no"?><!DOCTYPE svg PUBLIC "-//W3C//DTD SVG 1.1//EN" "http://www.w3.org/Graphics/SVG/1.1/DTD/svg11.dtd"><svg t="1583235474375" class="icon" viewBox="0 0 1024 1024" version="1.1" xmlns="http://www.w3.org/2000/svg" p-id="25649" xmlns:xlink="http://www.w3.org/1999/xlink" width="200" height="200"><defs><style type="text/css"></style></defs><path d="M512 0a512 512 0 1 0 512 512A512 512 0 0 0 512 0z m212.114286 548.571429H548.571429v175.542857a25.6 25.6 0 0 1-25.6 25.6h-21.942858a25.6 25.6 0 0 1-25.6-25.6V548.571429h-175.542857a25.6 25.6 0 0 1-25.6-25.6v-21.942858a25.6 25.6 0 0 1 25.6-25.6H475.428571v-175.542857a25.6 25.6 0 0 1 25.6-25.6h21.942858a25.6 25.6 0 0 1 25.6 25.6V475.428571h175.542857a25.6 25.6 0 0 1 25.6 25.6v21.942858a25.6 25.6 0 0 1-25.6 25.6z" p-id="25650" fill="#1296db"></path></svg>