<?xml version="1.0" standalone="no"?><!DOCTYPE svg PUBLIC "-//W3C//DTD SVG 1.1//EN" "http://www.w3.org/Graphics/SVG/1.1/DTD/svg11.dtd"><svg t="1584668344600" class="icon" viewBox="0 0 1024 1024" version="1.1" xmlns="http://www.w3.org/2000/svg" p-id="10457" xmlns:xlink="http://www.w3.org/1999/xlink" width="300" height="300"><defs><style type="text/css"></style></defs><path d="M746.508 958.622H680.76a8.064 8.064 0 0 1-8.064-8.064v-11.29h-52.04v11.29a8.064 8.064 0 0 1-8.064 8.064H250.686a8.064 8.064 0 0 1-8.064-8.064v-11.29h-52.04v11.29a8.064 8.064 0 0 1-8.064 8.064H116.772c-37.022 0-67.144-30.122-67.144-67.146V555.266c0-37.022 30.122-67.144 67.144-67.144h483.458a8.064 8.064 0 0 1 8.064 8.064v151.264l70.978-62.02a8.06 8.06 0 0 1 5.306-1.992h121.014a8.064 8.064 0 0 1 8.064 8.064v299.976c-0.002 37.024-30.124 67.144-67.148 67.144z m-57.684-16.128h57.684c28.132 0 51.018-22.888 51.018-51.018V599.564h-109.922l-82.07 71.712a8.044 8.044 0 0 1-8.638 1.27 8.06 8.06 0 0 1-4.73-7.342v-160.954H116.772c-28.132 0-51.016 22.888-51.016 51.016v336.21c0 28.132 22.884 51.018 51.016 51.018h57.684v-11.29a8.064 8.064 0 0 1 8.064-8.064h68.168a8.064 8.064 0 0 1 8.064 8.064v11.29h345.778v-11.29a8.064 8.064 0 0 1 8.064-8.064h68.168a8.064 8.064 0 0 1 8.064 8.064v11.29z" fill="#4A555F" p-id="10458"></path><path d="M694.672 618.38l-121.334 106.014V523.064H116.762c-17.74 0-32.202 14.462-32.202 32.202v336.21c0 17.74 14.462 32.202 32.202 32.202h38.868v-19.354h121.926v19.354h308.148v-19.354h121.926v19.354h38.868c17.794 0 32.202-14.462 32.202-32.202V618.38h-84.028z m-215.144 139.236c-10.268 15.538-27.848 25.752-47.846 25.752-31.664 0-57.308-25.644-57.308-57.306 0-31.612 25.644-57.254 57.308-57.254 19.998 0 37.632 10.27 47.9 25.804-13.602 4.032-23.492 16.612-23.492 31.45 0 14.89 9.892 27.468 23.438 31.554z" fill="#DFDFDF" p-id="10459"></path><path d="M431.666 791.41c-36.046 0-65.372-29.326-65.372-65.372 0-36.018 29.326-65.316 65.372-65.316 22.028 0 42.45 10.998 54.628 29.42a8.062 8.062 0 0 1-4.436 12.178c-10.434 3.094-17.722 12.846-17.722 23.72 0 10.89 7.28 20.692 17.702 23.838a8.064 8.064 0 0 1 4.4 12.168 65.26 65.26 0 0 1-54.572 29.364z m0-114.562c-27.152 0-49.244 22.066-49.244 49.19 0 27.152 22.092 49.244 49.244 49.244a49.13 49.13 0 0 0 35.174-14.77c-11.46-7.442-18.832-20.406-18.832-34.474s7.382-26.998 18.858-34.4a49.192 49.192 0 0 0-35.2-14.79z" fill="#4A555F" p-id="10460"></path><path d="M423.604 639.214h16.128v29.57h-16.128z" fill="#4A555F" p-id="10461"></path><path d="M805.61 950.566v17.846c0 26.236-21.288 47.524-47.524 47.524H105.236c-26.234 0-47.524-21.288-47.524-47.524v-17.846H182.54v19.352h68.166v-19.352h361.906v19.352h68.166v-19.352h124.832z" fill="#DFDFDF" p-id="10462"></path><path d="M758.086 1024H105.234c-30.65 0-55.586-24.938-55.586-55.588v-17.848a8.064 8.064 0 0 1 8.064-8.064h124.83a8.064 8.064 0 0 1 8.064 8.064v11.29h52.038v-11.29a8.064 8.064 0 0 1 8.064-8.064h361.908a8.064 8.064 0 0 1 8.064 8.064v11.29h52.038v-11.29a8.064 8.064 0 0 1 8.064-8.064h124.83a8.064 8.064 0 0 1 8.064 8.064v17.848C813.674 999.062 788.738 1024 758.086 1024zM65.776 958.628v9.784c0 21.758 17.7 39.462 39.458 39.462h652.852c21.758 0 39.462-17.702 39.462-39.462v-9.784h-108.702v11.29a8.064 8.064 0 0 1-8.064 8.064h-68.164a8.064 8.064 0 0 1-8.064-8.064v-11.29h-345.78v11.29a8.064 8.064 0 0 1-8.064 8.064H182.542a8.064 8.064 0 0 1-8.064-8.064v-11.29H65.776zM429.672 387.596c-98.494 0-178.626-80.132-178.626-178.626s80.132-178.626 178.626-178.626 178.626 80.132 178.626 178.626-80.132 178.626-178.626 178.626z m0-341.124c-89.604 0-162.498 72.896-162.498 162.498s72.896 162.498 162.498 162.498 162.498-72.896 162.498-162.498-72.894-162.498-162.498-162.498z" fill="#4A555F" p-id="10463"></path><path d="M429.674 352.654c-79.226 0-143.682-64.456-143.682-143.682s64.456-143.682 143.682-143.682c79.228 0 143.68 64.456 143.68 143.682s-64.454 143.682-143.68 143.682z" fill="#FFD452" p-id="10464"></path><path d="M600.228 504.25H124.192a8.058 8.058 0 0 1-7.65-10.606 178.236 178.236 0 0 1 169.412-122.178h291.428a178.66 178.66 0 0 1 55.956 8.952 8.06 8.06 0 0 1 5.496 6.796 8.056 8.056 0 0 1-3.922 7.81c-16.42 9.68-26.62 27.514-26.62 46.546v54.62a8.06 8.06 0 0 1-8.064 8.06z m-464.45-16.128h456.386v-46.556c0-18.94 7.778-36.968 21.004-50.01a163.058 163.058 0 0 0-35.788-3.964H285.952c-66.296 0-125.288 39.952-150.174 100.53z" fill="#4A555F" p-id="10465"></path><path d="M167.12 469.304a143.376 143.376 0 0 1 118.832-62.896H577.38c1.088 0 2.17 0.012 3.256 0.036a88.624 88.624 0 0 0-7.288 35.122v27.738H167.12z" fill="#F58E6F" p-id="10466"></path><path d="M242.228 264.42h-16.718c-13.754 0-24.946-11.19-24.946-24.946V178.468c0-13.754 11.19-24.946 24.946-24.946h16.718c13.754 0 24.946 11.19 24.946 24.946v61.006c0 13.756-11.19 24.946-24.946 24.946z m-16.718-94.768a8.828 8.828 0 0 0-8.818 8.818v61.006a8.828 8.828 0 0 0 8.818 8.818h16.718a8.828 8.828 0 0 0 8.818-8.818V178.468a8.828 8.828 0 0 0-8.818-8.818h-16.718zM633.834 264.42h-16.716c-13.758 0-24.948-11.19-24.948-24.946V178.468c0-13.754 11.19-24.946 24.948-24.946h16.716c13.758 0 24.948 11.19 24.948 24.946v61.006c0 13.756-11.19 24.946-24.948 24.946z m-16.716-94.768a8.828 8.828 0 0 0-8.82 8.818v61.006a8.828 8.828 0 0 0 8.82 8.818h16.716a8.828 8.828 0 0 0 8.82-8.818V178.468a8.828 8.828 0 0 0-8.82-8.818h-16.716z" fill="#4A555F" p-id="10467"></path><path d="M241.758 163.26l-15.776-3.344C226.322 158.316 261.848 0 431.666 0c167.62 0 201.392 158.398 201.716 160l-15.81 3.186c-1.22-6.006-31.676-147.058-185.906-147.058-156.9 0-189.594 145.662-189.908 147.132zM625.476 306.86H407.662a8.064 8.064 0 0 1-8.064-8.064v-7.528c0-15.214 12.376-27.59 27.59-27.59 15.034 0 27.296 12.088 27.584 27.056h162.64v-34.376h16.128v42.44a8.06 8.06 0 0 1-8.064 8.062z m-209.738-16.128h22.898a11.476 11.476 0 0 0-11.448-10.928 11.48 11.48 0 0 0-11.45 10.928zM600.232 673.268a8.06 8.06 0 0 1-8.062-8.064V441.566c0-38.652 31.444-70.096 70.096-70.096h200.94c38.652 0 70.096 31.444 70.096 70.096v87.92c0 38.652-31.444 70.096-70.096 70.096h-175.61l-82.058 71.692a8.046 8.046 0 0 1-5.306 1.994z m62.036-285.672c-29.76 0-53.97 24.21-53.97 53.97v205.886l70.968-62.004a8.064 8.064 0 0 1 5.306-1.992h178.636c29.76 0 53.97-24.21 53.97-53.97v-87.92c0-29.76-24.21-53.97-53.97-53.97h-200.94z" fill="#4A555F" p-id="10468"></path><path d="M863.208 406.408H662.256c-19.354 0-35.158 15.75-35.158 35.158v164.448l47.362-41.394h188.748c19.408 0 35.158-15.75 35.158-35.158v-87.896c0-19.408-15.75-35.158-35.158-35.158z m-172.836 102.034a21.21 21.21 0 0 1-21.234-21.236 21.176 21.176 0 0 1 21.234-21.234c11.72 0 21.234 9.462 21.234 21.234 0.002 11.722-9.514 21.236-21.234 21.236z m77.306 0c-11.72 0-21.234-9.516-21.234-21.236 0-11.774 9.516-21.234 21.234-21.234s21.234 9.462 21.234 21.234c0 11.722-9.514 21.236-21.234 21.236z m71.93 0c-11.72 0-21.234-9.516-21.234-21.236 0-11.774 9.516-21.234 21.234-21.234s21.234 9.462 21.234 21.234c0 11.722-9.514 21.236-21.234 21.236z" fill="#FFD452" p-id="10469"></path><path d="M690.352 516.492c-16.156 0-29.302-13.146-29.302-29.302 0-16.16 13.146-29.306 29.302-29.306 16.16 0 29.306 13.146 29.306 29.306-0.002 16.156-13.148 29.302-29.306 29.302z m0-42.48a13.192 13.192 0 0 0-13.174 13.178 13.19 13.19 0 0 0 13.174 13.174c7.266 0 13.178-5.912 13.178-13.174a13.194 13.194 0 0 0-13.178-13.178zM767.67 516.492c-16.16 0-29.306-13.146-29.306-29.302 0-16.16 13.146-29.306 29.306-29.306s29.306 13.146 29.306 29.306c-0.002 16.156-13.146 29.302-29.306 29.302z m0-42.48a13.194 13.194 0 0 0-13.178 13.178 13.192 13.192 0 0 0 13.178 13.174c7.266 0 13.178-5.912 13.178-13.174a13.194 13.194 0 0 0-13.178-13.178zM839.604 516.492c-16.16 0-29.306-13.146-29.306-29.302 0-16.16 13.146-29.306 29.306-29.306s29.306 13.146 29.306 29.306c0 16.156-13.146 29.302-29.306 29.302z m0-42.48a13.194 13.194 0 0 0-13.178 13.178 13.192 13.192 0 0 0 13.178 13.174c7.266 0 13.178-5.912 13.178-13.174a13.194 13.194 0 0 0-13.178-13.178zM974.372 522.006h-16.128v-16.128h16.128v16.128z m0-32.256h-16.128v-16.128h16.128v16.128z m0-32.256h-16.128v-16.128h16.128v16.128z m-16.382-31.62a84.95 84.95 0 0 0-2.404-14.5l15.618-4.016a100.988 100.988 0 0 1 2.866 17.266l-16.08 1.25z m-7.298-28.348a85.244 85.244 0 0 0-7.236-12.792l13.292-9.13a100.814 100.814 0 0 1 8.618 15.232l-14.674 6.69z m-16.584-24.144a85.02 85.02 0 0 0-11.166-9.57l9.398-13.11a101.314 101.314 0 0 1 13.288 11.392l-11.52 11.288z m-23.818-17.064a84.1 84.1 0 0 0-13.752-5.172l4.332-15.534a100.412 100.412 0 0 1 16.404 6.168l-6.984 14.538z m-28.198-7.862a85.456 85.456 0 0 0-8.274-0.398h-7.054v-16.128h7.054c3.286 0 6.594 0.16 9.834 0.472l-1.56 16.054z" fill="#4A555F" p-id="10470"></path></svg>