<?xml version="1.0" standalone="no"?><!DOCTYPE svg PUBLIC "-//W3C//DTD SVG 1.1//EN" "http://www.w3.org/Graphics/SVG/1.1/DTD/svg11.dtd"><svg t="1584668484382" class="icon" viewBox="0 0 1024 1024" version="1.1" xmlns="http://www.w3.org/2000/svg" p-id="16616" xmlns:xlink="http://www.w3.org/1999/xlink" width="300" height="300"><defs><style type="text/css"></style></defs><path d="M512 0C229.229714 0 0 229.229714 0 512s229.229714 512 512 512 512-229.229714 512-512S794.770286 0 512 0z m242.256457 795.984457a21.942857 21.942857 0 0 1-21.942857 21.942857H305.949257a21.942857 21.942857 0 0 1-7.738514-1.411657l-6.524343 1.411657a21.942857 21.942857 0 0 1-21.942857-21.942857V228.015543a21.942857 21.942857 0 0 1 21.942857-21.942857l6.524343 1.411657a21.942857 21.942857 0 0 1 7.738514-1.411657h426.364343a21.942857 21.942857 0 0 1 21.942857 21.942857z" fill="#3D3D3D" p-id="16617"></path><path d="M732.3136 206.072686H305.949257a21.942857 21.942857 0 0 0-7.738514 1.411657l290.377143 62.698057a17.554286 17.554286 0 0 1 17.554285 17.554286v448.526628a17.554286 17.554286 0 0 1-17.554285 17.554286l-290.377143 62.698057a21.942857 21.942857 0 0 0 7.738514 1.411657h426.364343a21.942857 21.942857 0 0 0 21.942857-21.942857V228.015543a21.942857 21.942857 0 0 0-21.942857-21.942857z" fill="#EFE089" p-id="16618"></path><path d="M606.142171 736.263314V287.736686a17.554286 17.554286 0 0 0-17.554285-17.554286l-290.377143-62.698057-6.524343-1.411657a21.942857 21.942857 0 0 0-21.942857 21.942857v567.968914a21.942857 21.942857 0 0 0 21.942857 21.942857l6.524343-1.411657 290.377143-62.698057a17.554286 17.554286 0 0 0 17.554285-17.554286z m-54.528-242.015085a21.942857 21.942857 0 1 1 21.942858-21.942858 21.942857 21.942857 0 0 1-21.942858 21.942858z" fill="#D1C569" p-id="16619"></path><path d="M551.614171 472.305371m-21.942857 0a21.942857 21.942857 0 1 0 43.885715 0 21.942857 21.942857 0 1 0-43.885715 0Z" fill="#FFFFFF" p-id="16620"></path></svg>