<?xml version="1.0" standalone="no"?><!DOCTYPE svg PUBLIC "-//W3C//DTD SVG 1.1//EN" "http://www.w3.org/Graphics/SVG/1.1/DTD/svg11.dtd"><svg t="1583235427419" class="icon" viewBox="0 0 1024 1024" version="1.1" xmlns="http://www.w3.org/2000/svg" p-id="23939" width="200" height="200" xmlns:xlink="http://www.w3.org/1999/xlink"><defs><style type="text/css"></style></defs><path d="M842.112 370.304l-12.16 0C828.288 201.152 686.336 64 512 64S195.712 201.152 194.048 370.304l-12.16 0C116.8 370.304 64 421.632 64 484.992l0 360.384C64 908.672 116.8 960 181.888 960l660.224 0C907.2 960 960 908.672 960 845.312L960 484.992C960 421.632 907.2 370.304 842.112 370.304zM542.336 621.184l0 96.384c0 16.256-13.568 29.504-30.336 29.504-16.768 0-30.336-13.184-30.336-29.504L481.664 621.184C463.552 610.944 451.392 591.936 451.392 570.176 451.392 537.6 478.528 511.168 512 511.168c33.472 0 60.608 26.368 60.608 58.944C572.608 591.936 560.448 610.944 542.336 621.184zM284.992 370.304C286.656 249.92 387.84 152.448 512 152.448s225.344 97.472 227.008 217.856L284.992 370.304z" p-id="23940" fill="#1296db"></path></svg>