<?xml version="1.0" standalone="no"?><!DOCTYPE svg PUBLIC "-//W3C//DTD SVG 1.1//EN" "http://www.w3.org/Graphics/SVG/1.1/DTD/svg11.dtd"><svg t="1583234833168" class="icon" viewBox="0 0 1024 1024" version="1.1" xmlns="http://www.w3.org/2000/svg" p-id="11562" xmlns:xlink="http://www.w3.org/1999/xlink" width="200" height="200"><defs><style type="text/css"></style></defs><path d="M512 0a512 512 0 1 0 512 512A512 512 0 0 0 512 0z m243.382857 724.662857l-30.72 30.72a43.337143 43.337143 0 0 1-61.074286 0l-136.045714-136.228571a21.394286 21.394286 0 0 0-23.405714-4.571429A205.348571 205.348571 0 0 1 252.342857 313.6l115.748572 115.748571a10.605714 10.605714 0 0 0 9.142857 2.925715l40.228571-5.668572a10.788571 10.788571 0 0 0 9.142857-9.142857l5.668572-40.228571a10.605714 10.605714 0 0 0-2.925715-9.142857l-115.748571-115.748572a205.531429 205.531429 0 0 1 300.982857 251.794286 21.394286 21.394286 0 0 0 4.571429 23.405714l136.228571 136.045714a43.337143 43.337143 0 0 1 0 61.074286z" p-id="11563" fill="#1296db"></path></svg>