<?xml version="1.0" standalone="no"?><!DOCTYPE svg PUBLIC "-//W3C//DTD SVG 1.1//EN" "http://www.w3.org/Graphics/SVG/1.1/DTD/svg11.dtd"><svg t="1584668556223" class="icon" viewBox="0 0 1024 1024" version="1.1" xmlns="http://www.w3.org/2000/svg" p-id="18079" xmlns:xlink="http://www.w3.org/1999/xlink" width="300" height="300"><defs><style type="text/css"></style></defs><path d="M512 512m-512 0a512 512 0 1 0 1024 0 512 512 0 1 0-1024 0Z" fill="#FFFFFF" p-id="18080"></path><path d="M396 467.2z m0 0c3.2 0 6.4-1.6 8.8-4l61.6-60c4.8-4.8 4.8-11.2 0-16l-55.2-53.6-0.8-2.4c-3.2-7.2-2.4-16 0.8-24l0.8-0.8 4-7.2c5.6-9.6 19.2-26.4 33.6-42.4l0.8-0.8c26.4-25.6 62.4-41.6 100-44h1.6c4.8 0 8.8-2.4 11.2-7.2 2.4-5.6 0-12-6.4-15.2h-0.8c-85.6-34.4-182.4-15.2-248 48L176 363.2c-2.4 2.4-3.2 4.8-3.2 8s1.6 5.6 3.2 8l77.6 75.2c4.8 4.8 12.8 4.8 17.6 0l52.8-51.2 8.8 8.8 53.6 52c3.2 1.6 6.4 3.2 9.6 3.2z" fill="#FF7400" p-id="18081"></path><path d="M396 480c-7.2 0-12.8-2.4-17.6-7.2l-53.6-52-44.8 42.4c-9.6 9.6-25.6 9.6-36 0l-77.6-74.4c-4-4.8-6.4-10.4-6.4-17.6 0-6.4 2.4-12.8 7.2-17.6l131.2-125.6c68.8-66.4 171.2-86.4 261.6-50.4l1.6 0.8c5.6 2.4 10.4 7.2 12.8 13.6 2.4 5.6 2.4 12 0 18.4-4 9.6-12.8 15.2-23.2 14.4h-0.8c-34.4 2.4-67.2 16.8-91.2 40.8v0.8c-15.2 17.6-27.2 32-32 40l-4 7.2c-1.6 3.2-2.4 8-0.8 13.6l53.6 51.2c4.8 4.8 7.2 10.4 7.2 16.8s-2.4 12.8-7.2 16.8L414.4 472c-4.8 5.6-11.2 8-18.4 8v-1.6 1.6z m0-2.4v2.4-2.4z m-71.2-92l71.2 68.8v15.2-15.2l60-59.2-56-54.4-1.6-4.8c-4-10.4-4-22.4 1.6-34.4l4.8-8.8c7.2-12 23.2-31.2 35.2-44.8l0.8-0.8c28.8-27.2 65.6-44 104.8-48-80-29.6-168.8-11.2-228.8 47.2L186.4 371.2l76 73.6 62.4-59.2z" fill="#333333" p-id="18082"></path><path d="M800 756c2.4-2.4 3.2-4.8 3.2-8s-1.6-6.4-3.2-8L636.8 576c-4.8-4.8-12-4.8-16 0L560 636c-2.4 2.4-3.2 4.8-3.2 8s0.8 6.4 3.2 8L723.2 816c2.4 2.4 4.8 3.2 8 3.2s5.6-0.8 8-3.2l60.8-60z" fill="#FF7400" p-id="18083"></path><path d="M731.2 832c-6.4 0-12.8-2.4-17.6-7.2L551.2 661.6c-4.8-4.8-7.2-11.2-7.2-17.6 0-6.4 2.4-12.8 7.2-17.6l60-60c9.6-9.6 24.8-9.6 34.4 0l163.2 163.2c4.8 4.8 7.2 10.4 7.2 17.6 0 6.4-2.4 12.8-7.2 17.6l-60 60c-4.8 4.8-10.4 7.2-17.6 7.2zM570.4 644l161.6 161.6 58.4-58.4-161.6-160.8-58.4 57.6z" fill="#333333" p-id="18084"></path><path d="M795.2 422.4c40.8-40.8 51.2-102.4 26.4-155.2-1.6-3.2-4.8-6.4-8.8-6.4-4-0.8-8 0.8-10.4 3.2l-78.4 78.4-44-44 78.4-78.4c3.2-3.2 4-7.2 3.2-10.4-0.8-4-3.2-7.2-7.2-8.8-17.6-8-37.6-12-56.8-12-36.8 0-70.4 14.4-96 40-36 36-48.8 89.6-33.6 137.6l2.4 7.2-196.8 196.8-7.2-2.4c-48-15.2-102.4-2.4-138.4 33.6-40 40-51.2 101.6-28 152.8 1.6 4 4.8 6.4 8.8 7.2 4 0.8 8-0.8 10.4-3.2l76.8-76.8 44 44-76 76.8c-2.4 2.4-4 6.4-3.2 10.4 0.8 4 3.2 7.2 6.4 8.8 18.4 8.8 38.4 12.8 59.2 12.8 36.8 0 70.4-14.4 96-40 36-36 48.8-90.4 32.8-140l-2.4-6.4L648 452.8l7.2 2.4c14.4 4.8 28.8 7.2 44 7.2 36.8 0 70.4-14.4 96-40z" fill="#FFB900" p-id="18085"></path><path d="M326.4 848c-22.4 0-44-4.8-64-14.4-7.2-3.2-12.8-10.4-13.6-18.4-1.6-8 0.8-16 7.2-21.6l68.8-68.8-25.6-25.6-68 68c-7.2 6.4-16 8.8-24 7.2-8-1.6-15.2-6.4-18.4-14.4-24.8-56.8-12.8-124 30.4-167.2 39.2-39.2 98.4-53.6 151.2-36.8l185.6-185.6c-16.8-52.8-2.4-112 36.8-151.2 28-28 65.6-43.2 105.6-43.2 21.6 0 42.4 4.8 61.6 13.6 7.2 3.2 12.8 10.4 14.4 18.4 1.6 8-0.8 16-7.2 22.4l-68.8 68.8 25.6 25.6 69.6-69.6c5.6-5.6 13.6-8 21.6-7.2 8 1.6 14.4 6.4 18.4 13.6 27.2 56.8 15.2 124.8-28.8 169.6-28 28-65.6 43.2-105.6 43.2-16 0-32-2.4-48-8l-184 184.8c17.6 53.6 4 113.6-36 152.8-28 28.8-65.6 44-104.8 44z m-52.8-36.8c16 7.2 34.4 11.2 52.8 11.2 32.8 0 64-12.8 87.2-36 32.8-32.8 44-82.4 29.6-126.4l-4.8-15.2 207.2-206.4 15.2 4.8c12.8 4 26.4 6.4 39.2 6.4 32.8 0 64-12.8 87.2-36 36.8-36.8 46.4-92.8 24.8-139.2l-88 86.4-61.6-61.6 86.4-87.2c-16-7.2-33.6-10.4-50.4-10.4-32.8 0-64 12.8-87.2 36-32 32-44 81.6-30.4 124.8l4.8 15.2-208 207.2-15.2-4.8c-44-13.6-92.8-1.6-124.8 30.4-36 36-46.4 91.2-25.6 137.6l85.6-85.6 61.6 61.6-85.6 87.2z m-0.8 0.8z m476.8-600.8z" fill="#333333" p-id="18086"></path></svg>