<?xml version="1.0" standalone="no"?><!DOCTYPE svg PUBLIC "-//W3C//DTD SVG 1.1//EN" "http://www.w3.org/Graphics/SVG/1.1/DTD/svg11.dtd"><svg t="1584668169797" class="icon" viewBox="0 0 1024 1024" version="1.1" xmlns="http://www.w3.org/2000/svg" p-id="4817" xmlns:xlink="http://www.w3.org/1999/xlink" width="300" height="300"><defs><style type="text/css"></style></defs><path d="M521.2 364.2H479v114.6h42.2c11.9 0 21.8-4.5 29.7-13.5 8.3-9.4 12.4-24 12.4-43.8 0-20.9-3.8-35.9-11.4-44.9-7.1-8.2-17.4-12.4-30.7-12.4z" p-id="4818" fill="#1296db"></path><path d="M511.1 65c-246.9 0-447 200.1-447 447s200.1 447 447 447 447-200.1 447-447S758 65 511.1 65z m92.8 454.9c-23.4 21.6-51 32.4-82.7 32.4H479v163.2c-0.4 15.1-12.6 22.7-36.8 22.7-24.5 0-36.8-7.6-36.8-22.7V321c0-10.4 3.2-18.6 9.7-24.3 4.7-4 10.4-5.9 17.3-5.9H521c33.9 0 61.1 10.3 81.6 30.8 22.7 22 34.1 55.3 34.1 100 0.1 44.6-10.9 77.4-32.8 98.3z" p-id="4819" fill="#1296db"></path></svg>