<?xml version="1.0" standalone="no"?><!DOCTYPE svg PUBLIC "-//W3C//DTD SVG 1.1//EN" "http://www.w3.org/Graphics/SVG/1.1/DTD/svg11.dtd"><svg t="1584668243567" class="icon" viewBox="0 0 1024 1024" version="1.1" xmlns="http://www.w3.org/2000/svg" p-id="6037" xmlns:xlink="http://www.w3.org/1999/xlink" width="300" height="300"><defs><style type="text/css"></style></defs><path d="M840.092173 569.886404c3.999905-3.999905 6.199852-9.399776 6.199852-15.09964V303.392762c0-47.498867-38.699077-86.097946-86.397939-86.097946H250.206246c-4.899883 0-8.899788 3.999905-8.899788 8.899788v559.486652c0 47.498867 38.599079 85.897951 86.397939 85.89795h205.79509c5.799862 0 11.29973-2.299945 15.299635-6.399847l291.293051-295.292955zM864.891581 624.585099L591.798096 896.478612c-1.599962 1.599962-2.699936 3.699912-3.199923 5.999857L566.998688 1009.975905c-1.599962 8.199804 5.599866 15.399633 13.799671 13.79967l107.997423-21.499487c2.199948-0.39999 4.299897-1.599962 5.999857-3.199923l272.993487-271.893514c4.59989-4.59989 4.59989-11.999714 0-16.599604l-86.397939-85.997948c-4.499893-4.59989-11.899716-4.59989-16.499606 0z" fill="#46A3FB" p-id="6038"></path><path d="M501.800243 72.898261c-3.099926-5.899859-9.099783-8.999785-13.499678-6.69984l-85.097969 43.99895c-4.399895 2.199948-5.399871 8.899788-2.399943 14.899645 3.099926 5.899859 9.099783 8.999785 13.499678 6.69984l85.09797-43.998951c4.399895-2.299945 5.399871-8.899788 2.399942-14.899644z" fill="#7CCBE2" p-id="6039"></path><path d="M425.202071 48.498843c-5.899859 3.099926-8.999785 9.099783-6.69984 13.499678l43.99895 85.09797c2.199948 4.399895 8.899788 5.399871 14.899644 2.399942s8.999785-9.099783 6.699841-13.499678l-43.998951-85.097969c-2.299945-4.399895-8.899788-5.499869-14.899644-2.399943z" fill="#7CCBE2" p-id="6040"></path><path d="M153.751615 99.789972a12.399704 2.299945 41.728 1 0 3.061664-3.432958 12.399704 2.299945 41.728 1 0-3.061664 3.432958Z" fill="#E61F19" p-id="6041"></path><path d="M149.658471 110.186541a12.399704 2.299945 11.725 1 0 0.934765-4.50391 12.399704 2.299945 11.725 1 0-0.934765 4.50391Z" fill="#E61F19" p-id="6042"></path><path d="M138.74575 122.982206a2.299945 12.399704 71.724 1 0 23.54845-7.776964 2.299945 12.399704 71.724 1 0-23.54845 7.776964Z" fill="#E61F19" p-id="6043"></path><path d="M148.147523 137.687639a2.299945 12.399704 41.728 1 0 16.506366-18.508121 2.299945 12.399704 41.728 1 0-16.506366 18.508121Z" fill="#E61F19" p-id="6044"></path><path d="M163.689651 145.787262a2.299945 12.399704 11.725 1 0 5.0396-24.281949 2.299945 12.399704 11.725 1 0-5.0396 24.281949Z" fill="#E61F19" p-id="6045"></path><path d="M175.111065 133.825312a12.399704 2.299945 71.724 1 0 4.367858-1.442501 12.399704 2.299945 71.724 1 0-4.367858 1.442501Z" fill="#E61F19" p-id="6046"></path><path d="M185.154996 128.964494a12.399704 2.299945 41.728 1 0 3.061664-3.432958 12.399704 2.299945 41.728 1 0-3.061664 3.432958Z" fill="#E61F19" p-id="6047"></path><path d="M191.439592 119.66434a12.399704 2.299945 11.725 1 0 0.934765-4.50391 12.399704 2.299945 11.725 1 0-0.934765 4.50391Z" fill="#E61F19" p-id="6048"></path><path d="M179.724768 110.174148a2.299945 12.399704 71.724 1 0 23.54845-7.776964 2.299945 12.399704 71.724 1 0-23.54845 7.776964Z" fill="#E61F19" p-id="6049"></path><path d="M177.260907 106.275807a2.299945 12.399704 41.728 1 0 16.506366-18.508121 2.299945 12.399704 41.728 1 0-16.506366 18.508121Z" fill="#E61F19" p-id="6050"></path><path d="M173.137337 103.936252a2.299945 12.399704 11.725 1 0 5.0396-24.28195 2.299945 12.399704 11.725 1 0-5.0396 24.28195Z" fill="#E61F19" p-id="6051"></path><path d="M162.413732 92.932985a12.399704 2.299945 71.724 1 0 4.367858-1.442501 12.399704 2.299945 71.724 1 0-4.367858 1.442501Z" fill="#E61F19" p-id="6052"></path><path d="M213.946169 32.36122a14.999642 14.999642 0 1 0 19.967378-22.388856 14.999642 14.999642 0 1 0-19.967378 22.388856Z" fill="#2C65AF" p-id="6053"></path><path d="M94.409963 201.395195c-1.599962 1.699959-4.1999 1.899955-5.89986 0.299993l-34.299181-30.59927c-1.699959-1.599962-1.899955-4.1999-0.299993-5.899859 1.599962-1.699959 4.1999-1.899955 5.899859-0.299993L94.009972 195.395338c1.799957 1.499964 1.899955 4.1999 0.399991 5.999857z" fill="#2C65AF" p-id="6054"></path><path d="M92.510008 168.795973l-30.59927 34.299182c-1.599962 1.699959-4.1999 1.899955-5.899859 0.299993-1.699959-1.599962-1.899955-4.1999-0.299993-5.89986l30.59927-34.299181c1.599962-1.699959 4.1999-1.899955 5.899859-0.299993 1.699959 1.599962 1.799957 4.1999 0.299993 5.899859z" fill="#2C65AF" p-id="6055"></path><path d="M350.60385 100.99759c-13.999666 15.699625-38.099091 17.19959-53.698718 3.299922-15.599628-13.899668-16.799599-37.999093-2.799934-53.698719 13.999666-15.699625 38.099091-17.19959 53.598722-3.299921s16.999594 37.999093 2.89993 53.698718z m-48.998831-43.698957c-10.299754 11.599723-9.399776 29.299301 2.09995 39.499058s29.199303 9.099783 39.499058-2.499941 9.399776-29.299301-2.09995-39.499057-29.199303-9.099783-39.499058 2.49994z" fill="#E62A52" p-id="6056"></path><path d="M506.200138 884.878889H287.005368c-28.299325 0-54.89869-10.89974-74.998211-30.899263s-30.99926-46.498891-30.99926-74.698218v-56.098661c0-7.699816 6.29985-13.999666 13.999666-13.999666s13.999666 6.29985 13.999666 13.999666v56.098661c0 42.698981 34.999165 77.498151 77.898141 77.498151h219.194771c2.399943 0 4.699888-0.999976 6.299849-2.699935L822.992581 539.587127c1.599962-1.699959 2.599938-3.899907 2.599937-6.199852V265.593664c0-42.898977-34.999165-77.698146-78.098136-77.698147h-88.297894c-7.699816 0-13.999666-6.29985-13.999666-13.999666s6.29985-13.999666 13.999666-13.999666h88.297894c58.498604 0 106.097469 47.498867 106.097468 105.797476v267.793611c0 9.799766-3.799909 18.999547-10.699744 25.99938L532.499511 873.879151c-6.899835 6.899835-16.499606 10.999738-26.299373 10.999738z" fill="" p-id="6057"></path><path d="M195.007563 672.183963c-7.699816 0-13.999666-6.29985-13.999666-13.999666v-96.497697c0-7.699816 6.29985-13.999666 13.999666-13.999666s13.999666 6.29985 13.999666 13.999666v96.497697c0 7.699816-6.29985 13.999666-13.999666 13.999666z" fill="" p-id="6058"></path><path d="M195.007563 470.588773c-7.699816 0-13.999666-6.29985-13.999666-13.999666V183.295627c0-12.899692 10.49975-23.499439 23.499439-23.499439h362.391354c7.699816 0 13.999666 6.29985 13.999666 13.999666s-6.29985 13.999666-13.999666 13.999666H209.007229v268.693589c0 7.799814-6.29985 14.099664-13.999666 14.099664z" fill="" p-id="6059"></path><path d="M571.698576 1002.776076c-6.799838 0-13.39968-2.699936-18.199566-7.599818-6.099854-6.099854-8.699792-14.799647-6.999833-23.199447l21.599485-107.497435c0.999976-4.999881 3.399919-9.599771 6.999833-13.199685l272.993487-271.893514c4.799885-4.899883 11.29973-7.499821 18.099568-7.599818h0.099998c6.799838 0 13.39968 2.699936 18.199565 7.599818l86.497937 85.997949c10.099759 10.099759 10.099759 26.39937 0 36.499129l-273.093485 271.993511-0.099998 0.099997c-3.599914 3.499917-8.099807 5.899859-12.999689 6.799838l-107.997424 21.499487c-1.699959 0.39999-3.399919 0.499988-5.099878 0.499988z m23.799432-132.096848l-20.799504 103.397533 103.997519-20.699506 270.893537-269.693566-83.198015-82.698027-270.893537 269.693566z m269.293575-271.393525z m-6.69984-9.899764z" fill="" p-id="6060"></path><path d="M885.391092 722.882754c-6.599843 0-13.099687-2.49994-18.199566-7.499821l-0.099998-0.099998-32.499224-32.299229c-4.899883-4.799885-7.599819-11.29973-7.599819-18.099568 0-6.899835 2.599938-13.39968 7.599819-18.299564l13.599675-13.599675c9.999761-9.999761 26.39937-9.999761 36.399132 0l32.599222 32.399227c4.899883 4.799885 7.599819 11.29973 7.599819 18.099568 0 6.899835-2.599938 13.39968-7.599819 18.299563l-13.599675 13.599676c-4.999881 5.099878-11.599723 7.499821-18.199566 7.499821z m-29.299301-58.098614l29.299301 29.199303 10.299754-10.299754-29.299301-29.199303-10.299754 10.299754z m41.299015 20.599509z m-42.998975-22.299468z m10.399752-10.199757z" fill="" p-id="6061"></path><path d="M631.497149 942.177522c-6.499845 0-12.699697-2.49994-17.299587-7.199828-5.799862-5.799862-8.3998-14.099664-6.69984-22.199471l7.299826-36.399131c0.999976-4.899883 3.299921-9.199781 6.799837-12.699697L783.993511 701.883255c9.499773-9.499773 24.999404-9.499773 34.599174-0.099998l0.099998 0.099998 29.199303 29.099306c4.699888 4.59989 7.199828 10.799742 7.299826 17.299587 0 6.599843-2.49994 12.799695-7.199828 17.499582L685.495861 927.57787c-3.299921 3.399919-7.499821 5.699864-12.299707 6.699841l-0.299993 0.099997-36.599126 7.299826c-1.599962 0.299993-3.199924 0.499988-4.799886 0.499988z m38.699077-21.599485zM641.996899 882.878937l-6.099855 30.199279 30.399275-6.099854 159.196202-158.696214-24.29942-24.199423L641.996899 882.878937z m161.79614-161.096157z" fill="" p-id="6062"></path><path d="M508.000095 678.083823c-17.499583 0-31.399251 13.999666-31.39925 31.199255v8.299802c0 17.19959 13.999666 31.199256 31.39925 31.199256 17.499583 0 31.399251-13.999666 31.399251-31.199256v-8.299802c0-17.299587-14.099664-31.199256-31.399251-31.199255z" fill="#F7AD37" p-id="6063"></path><path d="M508.000095 749.382122c-17.59958 0-31.899239-14.299659-31.899239-31.799242v-8.299802c0-17.499583 14.299659-31.799241 31.899239-31.799241s31.899239 14.299659 31.899239 31.799241v8.299802c0 17.499583-14.299659 31.799241-31.899239 31.799242z m0-70.698314c-16.999594 0-30.799265 13.699673-30.799265 30.59927v8.299802c0 16.899597 13.799671 30.59927 30.799265 30.59927s30.799265-13.699673 30.799266-30.59927v-8.299802c0-16.899597-13.799671-30.59927-30.799266-30.59927z" fill="" p-id="6064"></path><path d="M515.099926 273.593473c-96.597695-1.599962-144.796546 49.998807-144.796545 154.596311 0 0 2.49994 21.499487 26.699363 21.499488s25.599389-21.499487 25.599389-21.499488c-1.599962-69.898332 30.99926-102.997543 97.397676-99.697621 44.298943 5.099878 67.198397 29.899287 68.798359 74.698218-2.999928 19.999523-19.899525 45.898905-49.698815 77.398153-39.599055 39.999046-59.398583 75.598196-59.398582 107.197443v32.399227s2.999928 19.29954 24.899406 19.29954c21.79948 0 24.899406-19.29954 24.899406-19.29954v-22.499463c0-26.299373 18.899549-58.098614 56.99864-94.697741 39.699053-36.499129 59.498581-69.898332 59.49858-99.697621-3.499917-82.99802-46.898881-126.296987-130.896877-129.696906z" fill="#F7AD37" p-id="6065"></path><path d="M504.500179 639.784736c-21.79948 0-25.099401-19.399537-25.099401-19.499534v-32.499225c0-15.699625 4.999881-32.69922 14.899644-50.598793 9.899764-17.799575 24.899406-36.89912 44.598936-56.798645 29.999284-31.599246 46.598888-57.598626 49.698815-77.198158-1.599962-44.398941-24.599413-69.398344-68.598364-74.398225-32.199232-1.599962-56.698647 5.499869-72.798263 21.199494-16.899597 16.399609-25.099401 42.798979-24.199423 78.198134 0 0.199995-1.699959 21.79948-25.899382 21.79948-24.099425 0-26.999356-21.599485-26.999356-21.79948 0-27.199351 3.299921-50.998783 9.799766-70.998306s16.399609-36.599127 29.499297-49.398821c23.999427-23.699435 59.598578-35.19916 105.797476-34.499177 41.899 1.699959 74.098232 13.499678 95.797714 35.099163 21.699482 21.499487 33.599198 53.498724 35.19916 94.897736 0 29.899287-20.09952 63.498485-59.598578 99.897616-37.799098 36.299134-56.898643 68.098375-56.898642 94.497746v22.499463c-0.099998 0.299993-3.399919 19.599532-25.199399 19.599532z m6.799838-311.792561c2.899931 0 5.699864 0.099998 8.699792 0.199995 22.19947 2.49994 39.199065 10.099759 50.598793 22.599461 11.399728 12.499702 17.699578 30.099282 18.499559 52.498748-2.999928 19.799528-19.799528 45.898905-49.798812 77.598148-39.39906 39.79905-59.398583 75.798192-59.398583 106.997448v32.399227c0 0.199995 3.299921 18.999547 24.599413 18.999546s24.599413-18.899549 24.599413-19.099544v-22.399466c0-26.499368 19.199542-58.498604 57.098638-94.897736 39.39906-36.299134 59.398583-69.798335 59.398583-99.497626-3.399919-82.498032-47.198874-126.096992-130.496887-129.49691-1.399967 0-2.799933-0.099998-4.1999-0.099998-43.99895 0-78.098137 11.599723-101.297583 34.399179-25.899382 25.499392-39.099067 65.898428-39.099067 119.997137 0 0.199995 2.799933 21.299492 26.39937 21.299492 23.599437 0 25.399394-21.099497 25.399394-21.299492-0.799981-35.599151 7.399823-62.098518 24.399418-78.598124 14.799647-14.299659 36.499129-21.599485 64.598459-21.599485z" fill="" p-id="6066"></path></svg>